/* XPM */
static char *e4cf6e8294b845f0eccadaeef08e182eLmQURgjWU3mMgilv[] = {
/* columns rows colors chars-per-pixel */
"37 73 146 2 ",
"   c None",
".  c gray3",
"X  c #181408",
"o  c #080818",
"O  c #180818",
"+  c #181D18",
"@  c #281808",
"#  c #381818",
"$  c #28280A",
"%  c #382808",
"&  c #383808",
"*  c #080E2D",
"=  c #181830",
"-  c #282829",
";  c #383828",
":  c #392839",
">  c #333C33",
",  c #493808",
"<  c #482819",
"1  c #483818",
"2  c #583818",
"3  c #4C382A",
"4  c #484808",
"5  c #5A4808",
"6  c #484818",
"7  c #685808",
"8  c #684818",
"9  c #7C5818",
"0  c #484838",
"q  c #585838",
"w  c #6F532D",
"e  c #0E124E",
"r  c #31334F",
"t  c #16186E",
"y  c #4A3A66",
"u  c #484848",
"i  c #585848",
"p  c #515852",
"a  c #586858",
"s  c #686840",
"d  c #686858",
"f  c #50516F",
"g  c #686868",
"h  c #757868",
"j  c #686778",
"k  c gray47",
"l  c #885B28",
"z  c #8E573B",
"x  c #9D6830",
"c  c #B2773D",
"v  c #DB701E",
"b  c #C36925",
"n  c #D97938",
"m  c #927946",
"M  c #8E7658",
"N  c #A86557",
"B  c #8F5876",
"V  c #8B7868",
"C  c #C7774A",
"Z  c #788878",
"A  c #E88837",
"S  c #9F885F",
"D  c #898978",
"F  c #B39B6F",
"G  c #C5894C",
"H  c #D88A4C",
"J  c #E88848",
"K  c #E89848",
"L  c #F89848",
"P  c #F59858",
"I  c #F8A85D",
"U  c #E6A868",
"Y  c #F8B868",
"T  c #E8A878",
"R  c #F8A67A",
"E  c #F8B87B",
"W  c #181888",
"Q  c #181898",
"!  c #2E2F92",
"~  c #1818A9",
"^  c #1828A9",
"/  c #2828A8",
"(  c #3939A8",
")  c #282BB8",
"_  c #3839B8",
"`  c #484290",
"'  c #585694",
"]  c #6C5492",
"[  c #707090",
"{  c #5150B1",
"}  c #6A58AB",
"|  c #6868A8",
" . c #7968A7",
".. c #7978A7",
"X. c #6768B8",
"o. c #7878B8",
"O. c #3738C9",
"+. c #3848CE",
"@. c #5858C8",
"#. c #4848D7",
"$. c #5858D8",
"%. c #6858CA",
"&. c #7171CF",
"*. c #4549E8",
"=. c #6268E8",
"-. c #7379E8",
";. c #9F7D9A",
":. c #8878B6",
">. c #888E90",
",. c #9E9893",
"<. c #B9A492",
"1. c #9D94AB",
"2. c #8988B7",
"3. c #DFB48C",
"4. c #CAAEB1",
"5. c #F8C888",
"6. c #E8C898",
"7. c #F8C898",
"8. c #E8C4A8",
"9. c #F8D8A4",
"0. c #E8C8B8",
"q. c #F8D8BB",
"w. c #F8E9B0",
"e. c #8888C8",
"r. c #9888C8",
"t. c #9898C7",
"y. c #8588D8",
"u. c #9888D8",
"i. c #989AD8",
"p. c #A898CA",
"a. c #A8A8C8",
"s. c #BAB8C5",
"d. c #A8A8D8",
"f. c #B8A8D8",
"g. c #B8B8D8",
"h. c #9193E9",
"j. c #A7AAED",
"k. c #B8B9E9",
"l. c #C8B8E3",
"z. c #CFCFD3",
"x. c #E9D3D3",
"c. c #F7ECCF",
"v. c #D0CFF0",
"b. c #E8D8EE",
"n. c #F3F2E8",
"m. c #E8EEF8",
/* pixels */
"                      X                       X @                         ",
"                      %               X $ % % & @           X X           ",
"                    $ & X         @ % & & , , X         X % &             ",
"                    % , X     X % & % & , 5 X       X % & & X             ",
"            X $   X & 7 @   @ % & % % & , , X @ % % % % % $       @ %     ",
"              , @ @ & 7 % X % % % % & 5 5 , % % % % % , ,   X $ % 5 @     ",
"        @ X   , , % & , 5 % % $ % % , 5 5 , % % % , 7 7 , % % $ , ,       ",
"          , @ % 5 % % , 5 , % % % & & 5 5 & % % , 5 7 , , % $ 5 5     X % ",
"          , , , , , % , 5 5 $ % % 5 % 5 , % $ 4 5 , 5 , & % 5 7 @ X $ % % ",
"          % , , , & % & , , $ & % 5 & 7 , $ , 5 % 5 5 5 % 5 7 & % % % % X ",
"          X , & , & % & , % $ , , 7 , 5 & $ % % 5 5 5 % , 5 % $ % % , $   ",
"            % & & , % & & % % , , 5 , , & $ & , 5 5 & 5 5 & , , , 5 ,     ",
"      @ % X @ & & , % , , % % , 5 5 , & % % , 5 5 , , 5 5 5 , 4 5 &       ",
"      X % & % % & % % % , % % , , 5 5 & & & 5 , 5 , , , 5 , 5 5 , % $ X   ",
"        & , , % % % % % % , % , , & 5 5 , & , 5 5 , 5 5 5 & & , 5 , @     ",
"        $ , , % % % % , % , , @ , & % , , % 5 5 & , 5 5 , , , , , @       ",
"        X , , , % % % % & % l x 9 5 % @ & , 5 5 % % % , 5 5 5 %           ",
"          $ , , & % % % $ 9 I I I K 8 % @ & , , @ % $ , 5 , $             ",
"            % , & & % $ 8 P P I I I 7.6.S 6 % % s 6.S $ , @ @ X           ",
"            X & , % % $ x x 2 l c U w.w.w.6.m F w.w.F X , , . @           ",
"          X @ $ , 5 , % 9 x & @ $ , m 6.w.w.w.w.6.w $   @ 5 X X           ",
"            $ $ l P P x 9 P K c s % % , m 6.9.F 6 @ @     & @             ",
"              @ x I P I H P E n.,.- 1 & 1 3.6.1 - M M     @ @             ",
"                5 P I P P P R n.s.- > s.c.9.w.V - z.<.                    ",
"                  9 P I I P P E q.<.,.n.c.9.9.8.,.n.M                     ",
"                    8 x c P I L L Y w.9.9.5.5.9.w.w.q                     ",
"                    o o 2 v L I P P 5.9.9.5.Y 9.9.9.+                     ",
"                e t / ~ / z v J P P I 9.7.E E 7.w.M                       ",
"            * W ) ) ^ / ~ / b v v A P E w.5.5.w.8.= o                     ",
"          e / ) ^ ^ ^ ^ ^ ~ ( b v v v K 7.9.9.7.o.+.+.! o                 ",
"        t ) / ^ ^ ^ ^ ^ ^ ^ ~ ` n v v v v n v C #.#.#.*.+.=               ",
"      e ) ^ ^ ^ ^ ^ ^ ^ ^ ^ ^ ~ u.T A A n n A v } *.#.#.#.#.e             ",
"    * ^ ^ ^ ^ ^ ^ ^ ^ ^ ^ ^ ^ / $.v.8.A J P P v B *.#.#.#.#.#.o           ",
"    W / ^ ^ ^ ^ / ^ ^ ^ ^ ^ / +.#.k.m.x.H A P v B *.#.+.#.#.#.( o         ",
"  e ) ^ ^ ^ ^ ) / ^ ^ ^ ^ ^ _ #.#.y.d.v.b.T A v N #.#.O._ #.#.*.t         ",
"  t ) ^ ^ / ) +./ ^ ^ ^ ^ ^ O.#.#.h.v.t.d.m.3.v N #.#.#./ #.#.*.!         ",
"  W / ^ ^ ) #.#./ ^ ^ ^ / / #.#.#.y.b.v.r.2.v.4.;.#.#.#.^ O.#.#._ o       ",
"o Q / ^ ^ _ #.#.) ^ ^ ^ ^ ) #.#.#.y.d.v.m.d.o.e.y.#.#.#.^ ) #.#.#.*       ",
"  Q ^ ^ ^ O.#.#.) ^ ^ ^ ^ ) #.#.#.-.k.2.k.m.l.p.&.) #.#./ ^ +.#.#.e       ",
"  t ) ^ / +.#.#.) ^ ^ ^ ^ ) #.#.#.=.b.v.r.p.k.g.X.~ O.#.) ~ O.#.#.e       ",
"  y e.o.j.j.h.h.( ~ ^ ^ ^ _ #.#.#.$.t.g.f.:...2.X.~ O.#.O.~ O.#.$.r       ",
"  j d.2.d.b.b.b.@.~ ^ ^ ~ _ #.#.#.-.l.d.2.r.2.2.X.~ ) #.%.&.h.h.v.j       ",
"  ] t.d.d.t.2.g.e.Q ^ / / O.#.#.#.i.v.l.l.g.g.d.d.&.$.{  .p.g.g.k.a.      ",
"O ..o.2.f.v.b.v.f o r ` o.e.e.i.d.g.g.g.d.d.g.k.d.a.[ r | d.g.g.k.g.X     ",
"  [ d.t.t.2.t.2.:   ; 0 u u u j >.>.>.>.1.1.>.k p u ; r | 2.t.r.2.g.+     ",
"  f f.g.v.v.k.2.. . 0 > > > > > > > > > > > > > > > u u ' i.d.l.v.g.+     ",
"# P R E 8.z.4.>   - > > u p p p u u u u u u u u p p g h S 4.g.g.g.0.3     ",
"x I P L Y w.F     > ; 0 a k k h h h h h h h h h k k k k P L E 9.9.w.S     ",
"H I P P E w.3.X X > ; u g k h h k k k k k k k k h h h S P P I 9.9.9.6.X   ",
"c I P I 7.5.6.+ - > > p h k h h h h h h k h h h h h h V P P P 5.9.9.9.-   ",
"X c I I E Y S . > ; 0 a h h h h h h h h h h h h h h h h S P I I E 5.6.+   ",
"    z c G G X + > ; u d h h h h h h h h a d h k h h h h k M H P P U q     ",
"              > ; > p d g h h h h g h g i p h k h h h h k i   < 1 X       ",
"            + > ; 0 p d g h h k h d h d u p g h h h h h k g               ",
"            - > ; u a a d g h k h a h d 0 u d h h h h h k k -             ",
"            > ; > u p p p d h h g a k g > 0 a h h h h h h k g             ",
"          - > ; > p p u p d h g a p k g > > i g h h h h h k k +           ",
"          > ; ; 0 u u u u a d a i a k g > > u a h h h h h h Z 0           ",
"        X > ; > u u 0 0 u p p p u d k g > > 0 i d g h d g k k a           ",
"        + > ; 0 u u > > u i p u u g k a ; > 0 0 i a d p p h k h +         ",
"        + > > 0 u 0 > > u u 0 0 p h d ; ; ; 0 0 0 u p i u g k k -         ",
"        + > > 0 0 > > 0 u 0 0 0 a k 0   ; > 0 u > > u u > a k h -         ",
"        - 0 > 0 > > > 0 u 0 0 p d k u   ; 0 u u > > 0 0 > p h g -         ",
"          0 ; > 0 > > 0 0 > 0 p d h >   - 0 u 0 > ; 0 0 ; 0 p a +         ",
"          + > ; > > ; > > > u p p p X   + ; 0 0 > > 0 > > u p >           ",
"          X u 0 ; > > ; > > > 0 p -       - ; > 0 > ; ; > u 0 ; +         ",
"        X > p a p p a a > ; > 0 >           ; > ; ; > > ; ; > a h +       ",
"        > p a a a h Z Z h d u u ;           - 0 ; > p a u 0 a D D a       ",
"      + p a a a h Z Z Z D k p u u +         ; - - > p a a a a g Z D u     ",
"      ; a a a a Z D Z Z g p u u u -       + > - - - 0 a a a a a h Z p +   ",
"      - > u u u a a a p u u u u u -       + > - - - ; > > 0 0 u p p u -   ",
"      - > - - ; 0 u u u u u u u > X         > > - ; - - - - - > u u p -   ",
"        - - - - > > 0 u u 0 0 > +             - - - - - - - - > u 0 > X   "
};
