/* XPM */
static char *_626dd91de044d95a5cbe66f6bf5db57lKUkkmKywp55N4bx[] = {
/* columns rows colors chars-per-pixel */
"38 73 148 2 ",
"   c None",
".  c gray3",
"X  c #181408",
"o  c #080818",
"O  c #181D18",
"+  c #281808",
"@  c #28280A",
"#  c #382808",
"$  c #383808",
"%  c #080E2D",
"&  c #181830",
"*  c #282829",
"=  c #383828",
"-  c #333C33",
";  c #493808",
":  c #482819",
">  c #483818",
",  c #484808",
"<  c #5A4808",
"1  c #784708",
"2  c #685808",
"3  c #785808",
"4  c #684818",
"5  c #7C5818",
"6  c #484828",
"7  c #584828",
"8  c #484838",
"9  c #585838",
"0  c #6F532D",
"q  c #7F6837",
"w  c #0E124E",
"e  c #16186E",
"r  c #2E2F70",
"t  c #4A3A66",
"y  c #484848",
"u  c #585848",
"i  c #594750",
"p  c #515852",
"a  c #69584D",
"s  c #586858",
"d  c #686858",
"f  c #71486E",
"g  c #686868",
"h  c #757868",
"j  c #686778",
"k  c gray47",
"l  c #885B28",
"z  c #8E573B",
"x  c #9D6830",
"c  c #B2773D",
"v  c #DB701E",
"b  c #C36925",
"n  c #D97938",
"m  c #806749",
"M  c #927946",
"N  c #8E7658",
"B  c #A86557",
"V  c #8F5876",
"C  c #8B7868",
"Z  c #C7774A",
"A  c #788878",
"S  c #E88837",
"D  c #9F885F",
"F  c #898978",
"G  c #B39B6F",
"H  c #B3807F",
"J  c #C5894C",
"K  c #D88A4C",
"L  c #F88748",
"P  c #E89848",
"I  c #F89848",
"U  c #E88759",
"Y  c #F59858",
"T  c #E8A858",
"R  c #F8A85D",
"E  c #D2936E",
"W  c #E9986A",
"Q  c #CAAC7D",
"!  c #E6A868",
"~  c #F8B868",
"^  c #F8B87B",
"/  c #181888",
"(  c #181898",
")  c #2E2F92",
"_  c #1818A9",
"`  c #1828A9",
"'  c #2828A8",
"]  c #3939A8",
"[  c #282BB8",
"{  c #3839B8",
"}  c #484290",
"|  c #585694",
" . c #707090",
".. c #5150B1",
"X. c #6A58AB",
"o. c #6868A8",
"O. c #7968A7",
"+. c #6768B8",
"@. c #7878B8",
"#. c #3738C9",
"$. c #3848CE",
"%. c #5848C8",
"&. c #5858C8",
"*. c #4848D7",
"=. c #4858D8",
"-. c #5858D8",
";. c #7171CF",
":. c #4549E8",
">. c #6268E8",
",. c #7379E8",
"<. c #8878B6",
"1. c #888E90",
"2. c #B9A492",
"3. c #9D94AB",
"4. c #8988B7",
"5. c #B1A7B0",
"6. c #DFB48C",
"7. c #D7BDB2",
"8. c #E8C888",
"9. c #F8C888",
"0. c #E8C898",
"q. c #F8C898",
"w. c #E8C4A8",
"e. c #F8D8A4",
"r. c #F8D8BB",
"t. c #F8E9B0",
"y. c #8888C8",
"u. c #9888C8",
"i. c #9898C7",
"p. c #8588D8",
"a. c #989AD8",
"s. c #A898CA",
"d. c #A8A8C8",
"f. c #BAA8C8",
"g. c #BAB8C5",
"h. c #A8A8D8",
"j. c #B8A8D8",
"k. c #B8B8D8",
"l. c #9193E9",
"z. c #B8B9E9",
"x. c #C8B8E3",
"c. c #CFCFD3",
"v. c #E9D3D3",
"b. c #F7ECCF",
"n. c #D0CFF0",
"m. c #E8D8EE",
"M. c #F3F2E8",
"N. c #E8EEF8",
/* pixels */
"                        +                 X X + # #                         ",
"                      X $             X @ # $ ; #           X #             ",
"                      # $ X       + # # $ ; ; #         X # $ #             ",
"              X X   X # < +     @ $ $ # $ ; ;     X X # $ # #         +     ",
"                #   X $ 2 @   @ # # # # ; ; ; # # # # @ # ; X   X + $ #     ",
"          X     ; $ @ $ < ; @ $ @ # # ; < < ; # # # # ; 2 ; + @ # $ < X     ",
"          X #   # ; # # $ < ; # @ # # ; < < $ # # $ ; 3 < ; $ @ # < +     X ",
"            ; ; ; < $ # ; < < @ # # ; # < ; # @ $ < ; < ; $ # # 2 $   X @ $ ",
"            # ; ; ; ; # ; ; < @ # # < # 2 ; @ # < ; ; < < # $ 2 < @ # # # + ",
"            + ; ; ; # # $ ; $ @ ; $ 2 $ < $ @ $ $ ; < < $ # 2 ; @ # # # #   ",
"              $ # ; ; # # ; # # ; ; < ; ; $ @ # ; < < ; $ < $ # # $ ; < X   ",
"        X X   @ $ # < # ; ; # # ; < < ; ; $ # $ < < < $ < < ; < ; < < +     ",
"        X # @ + # $ $ # # ; # $ ; < < < # # # ; < < ; ; < , ; ; < < # X     ",
"        X $ ; ; # # # # # $ ; # < # < 2 ; ; $ ; ; < < ; < < ; ; ; ; ; #     ",
"          # ; ; # # # # $ @ ; ; # < # ; < ; # ; < ; ; < < ; # # ; < ;       ",
"          X ; $ # # # # $ # # ; ; ; ; @ # ; # < < # ; ; ; ; < < < #         ",
"            # ; ; $ # # # # ; K Y K x # X # ; ; ; @ + @ ; < < #             ",
"            X ; ; $ # # # $ Z R R R R G m > # ; $ @ m 7 # ; @ #             ",
"              @ ; ; $ # @ l K c K Y R t.t.0.D ; 4 Q b.Q + ; # X +           ",
"            X X # $ # @ @ l 5 + # < M 0.t.t.t.8.q.t.Q 9   # < X +           ",
"              # @ 4 c x < 4 J x ; # @ ; M 0.e.t.e.M # X   X ; X             ",
"              X @ x R R P x R R r.F # # + $ 6.e.0 @ > 6     # +             ",
"                X 5 R Y Y Y I ^ M.3.* = h G q.e.9 * 5.Q     X X             ",
"                  @ c R Y Y Y Y b.v.p p N.M.e.t.2.y m.G                     ",
"                    # c Y Y Y Y Y ~ ^ r.b.e.e.e.t.b.b.a                     ",
"                      X # 1 S R Y Y Y q.e.e.9.~ e.e.e.=                     ",
"                    % e e t b S Y R Y ~ e.9.^ ^ q.t.6.                      ",
"                % / ' [ [ _ } v v S Y Y 9.e.^ ^ e.e.=                       ",
"            o e ' ' ` ` ` ` _ f v v v S R e.e.e.t.5.) r %                   ",
"          % ( [ ` ` ` ` ` ` ` ` V v v v n T ^ ! E *.:.:.*.r                 ",
"        % ' ' ` ` ` ` ` ` ` ` _ ' H n S v v v v b %.*.*.*.:.] o             ",
"      o ( ' ` ` ' ` ` ` ` ` ` ` _ ,.v.U L P P Y v V :.*.*.*.:.]             ",
"      e [ ` ` ` ` ' ` ` ` ` ` ` #.=.n.m.W S I Y v V :.*.$.*.*.*.r           ",
"    % ' ` ` ` ` ' ' ` ` ` ` ` [ *.*.a.x.N.6.n I v B *.*.#.#.*.*.*.w         ",
"    e [ ` ` ` ' #.' ' ` ` ` ` #.*.*.p.k.h.n.v.K v B *.*.$.[ *.*.:.)         ",
"    ( ' ` ` [ *.$.' ` ` ` ` ` $.*.*.l.m.h.4.z.m.E B *.*.$.` #.*.*.{         ",
"  o ` ` ` ` #.*.$.' ` ` ` ` ' *.*.*.;.x.N.k.<.i.h.y.*.*.$.` [ *.*.*.%       ",
"  o ' ` ` ` #.*.*.[ ` ` ` ` [ *.*.*.p.h.h.N.n.i.4.;.$.*.*.' ` $.*.*.w       ",
"    / _ _ _ $.*.$.' ` ` ` ` { *.*.*.>.n.i.y.n.n.k.+._ $.*.' _ #.*.*.e       ",
"    t &.&.;.,.>.;.' ` ` ` ` { *.*.*.-.n.m.k.<.i.h.+._ #.*.[ _ { *.*.r       ",
"     .s.i.n.N.N.n.] _ ` ` ` { *.*.*.-.u.i.4.<.O.@..._ #.*.$.{ *.-.l.j       ",
"  O o.h.i.i.i.i.k.&._ ` ` _ [ *.*.$.l.N.n.k.k.h.h.y.[ #.*.X.a.z.n.n.3.O     ",
"  * o.<.s.n.n.n.n.| e / ] &.>.>.;.;.h.k.j.h.d.h.h.k.h.@.r o.i.d.s.k.x.*     ",
"  * @.i.4.4.i.h.4.*   * y j  . .3.g.g.k.k.k.k.k.k.1. .y & o.i.k.k.s.j.-     ",
"     .h.z.n.z.a. .    - 8 - - - y y y y p g p y y - - - * } <.u.i.h.x.-     ",
"  : E 0.w.g.c.5.-   O - - y y y y - - - - - - - - 8 y s s i f.z.n.n.c.8     ",
"  Z R Y I 9.t.N     = = - p h h h d s p p p p s s g h k s c R 6.7.7.t.G     ",
"= Y Y Y Y 9.t.N   . - = 8 p h k k k k k k k k k k h k k h U I Y e.e.e.0.*   ",
": Y R Y R e.e.G   X = - 8 s h h h h h h h h h h h h h k C Y Y Y 9.t.e.e.8   ",
"  0 R R ~ ^ ^ N   * - - y s h h h h h h h k k h h h h h h G Y Y R q.q.t.u   ",
"    0 K W ! J X   - = - p s g h h h h h h h h h h h h h h h m Y R R ~ Q O   ",
"      X + = X   * - = 8 u s g h h h h h h p d h k h h h h A 8 : z c q O     ",
"                - = = 8 p s g h h h h h d y p h k h h h h k d               ",
"              O - = - y p p g h k h h h s y p g h h h h h k h               ",
"              * - = 8 y u p g h h g h h s 8 u d h h h h h k k *             ",
"              - = - 8 y y p g h h g h h s - 8 p g h h h h h k g             ",
"            * - = - y y y p g h g g h h s - 8 y s g h h h h k k O           ",
"            - = - 8 y 8 y p g h g d h h d - - 8 y s g h h h h A 8           ",
"          X - = 8 y 8 8 8 p g g d d h k d - - 8 8 p s g g h h k s           ",
"          O - = 8 8 8 8 8 p d d s s h k s = - 8 8 8 p s p s h k h O         ",
"          O - - - - - - 8 p p p p s h d - = - 8 8 8 y u y y d h k *         ",
"          O - 8 8 - - - 8 y u p u d h 8 X = - 8 8 - 8 8 8 8 p h k =         ",
"          * 8 - 8 - - 8 8 y y y p g h 8   = 8 y 8 - - 8 - 8 p h g *         ",
"            8 = - 8 8 8 8 8 8 y p d h 8   * 8 y - - - - - - 8 p p O         ",
"            O - * = - = - - 8 y p p p X   O - 8 8 - - - - 8 y y -           ",
"            X y y = - - = - - - 8 y *       * = - 8 - = = - y 8 = O         ",
"          X - p s p p s s - = - 8 -           = - = = - - = = - s g O       ",
"          - p s s s h A A h s y y =           * 8 = - p s p 8 s A F s       ",
"        O p s s s h A A A F k p y y O         = * * - p s s s s g A F y     ",
"        = s s s s A F A A g p y y y *       O - * * * 8 s s s s s h A p O   ",
"        * - y y y s s s p y y y y y *       O - * * * = - - 8 8 y p p y *   ",
"        * - * * = 8 y y y y y y y - X         - - * = * * * * * - y y p *   ",
"          * * * * - - 8 y y 8 8 - O             * * * * * * * * - y 8 - X   "
};
