/* XPM */
static char *_d180d7604cd4a7af0181d69b03027a1mfSxtAPDYB9us5ED[] = {
/* columns rows colors chars-per-pixel */
"38 73 153 2 ",
"   c None",
".  c #081808",
"X  c #181408",
"o  c #080818",
"O  c #180818",
"+  c #181D18",
"@  c #281808",
"#  c #28280A",
"$  c #382808",
"%  c #383808",
"&  c #080E2D",
"*  c #282829",
"=  c #383828",
"-  c #392839",
";  c #333C33",
":  c #493808",
">  c #482819",
",  c #483818",
"<  c #4C382A",
"1  c #484808",
"2  c #5A4808",
"3  c #784708",
"4  c #685808",
"5  c #785808",
"6  c #684818",
"7  c #7C5818",
"8  c #484828",
"9  c #584828",
"0  c #484838",
"q  c #585838",
"w  c #6F532D",
"e  c #0E124E",
"r  c #31334F",
"t  c #16186E",
"y  c #2E2F70",
"u  c #4A3A66",
"i  c #484848",
"p  c #585848",
"a  c #515852",
"s  c #69584D",
"d  c #586858",
"f  c #686858",
"g  c #50516F",
"h  c #71486E",
"j  c #686868",
"k  c #757868",
"l  c #686778",
"z  c gray47",
"x  c #885B28",
"c  c #8E573B",
"v  c #9D6830",
"b  c #B2773D",
"n  c #DB701E",
"m  c #C36925",
"M  c #D97938",
"N  c #806749",
"B  c #927946",
"V  c #8E7658",
"C  c #A86557",
"Z  c #8F5876",
"A  c #8B7868",
"S  c #C7774A",
"D  c #788878",
"F  c #E88837",
"G  c #9F885F",
"H  c #898978",
"J  c #B39B6F",
"K  c #B3807F",
"L  c #C5894C",
"P  c #D88A4C",
"I  c #F88748",
"U  c #E89848",
"Y  c #F89848",
"T  c #E88759",
"R  c #F59858",
"E  c #E8A858",
"W  c #F8A85D",
"Q  c #D2936E",
"!  c #E9986A",
"~  c #CAAC7D",
"^  c #E6A868",
"/  c #F8B868",
"(  c #E8A878",
")  c #F8A67A",
"_  c #F8B87B",
"`  c #181888",
"'  c #181898",
"]  c #2E2F92",
"[  c #1818A9",
"{  c #1828A9",
"}  c #2828A8",
"|  c #3939A8",
" . c #282BB8",
".. c #3839B8",
"X. c #484290",
"o. c #585694",
"O. c #707090",
"+. c #5150B1",
"@. c #6868A8",
"#. c #7968A7",
"$. c #7978A7",
"%. c #6768B8",
"&. c #7878B8",
"*. c #3738C9",
"=. c #3848CE",
"-. c #5848C8",
";. c #5858C8",
":. c #4848D7",
">. c #4858D8",
",. c #5858D8",
"<. c #7171CF",
"1. c #4549E8",
"2. c #6268E8",
"3. c #7379E8",
"4. c #8878B6",
"5. c #888E90",
"6. c #B9A492",
"7. c #9D94AB",
"8. c #8988B7",
"9. c #B1A7B0",
"0. c #DFB48C",
"q. c #D7BDB2",
"w. c #E8C888",
"e. c #F8C888",
"r. c #E8C898",
"t. c #F8C898",
"y. c #E8C4A8",
"u. c #F8D8A4",
"i. c #E8C8B8",
"p. c #F8D8BB",
"a. c #F8E9B0",
"s. c #8888C8",
"d. c #9888C8",
"f. c #9898C7",
"g. c #8588D8",
"h. c #989AD8",
"j. c #A898CA",
"k. c #A8A8C8",
"l. c #BAB8C5",
"z. c #A8A8D8",
"x. c #B8A8D8",
"c. c #B8B8D8",
"v. c #9193E9",
"b. c #A7AAED",
"n. c #B8B9E9",
"m. c #C8B8E3",
"M. c #CFCFD3",
"N. c #E9D3D3",
"B. c #F7ECCF",
"V. c #D0CFF0",
"C. c #E8D8EE",
"Z. c #F3F2E8",
"A. c #E8EEF8",
/* pixels */
"                        @                 X X @ $ $                         ",
"                      X %             X # $ % : $           X $             ",
"                      $ % X       @ $ $ % : : $         X $ % $             ",
"              X X   X $ 2 @     # % % $ % : :     X X $ % $ $         @     ",
"                $   X % 4 #   # $ $ $ $ : : : $ $ $ $ # $ : X   X @ % $     ",
"          X     : % # % 2 : # % # $ $ : 2 2 : $ $ $ $ : 4 : @ # $ % 2 X     ",
"          X $   $ : $ $ % 2 : $ # $ $ : 2 2 % $ $ % : 5 2 : % # $ 2 @     X ",
"            : : : 2 % $ : 2 2 # $ $ : $ 2 : $ # % 2 : 2 : % $ $ 4 %   X # % ",
"            $ : : : : $ : : 2 # $ $ 2 $ 4 : # $ 2 : : 2 2 $ % 4 2 # $ $ $ @ ",
"            @ : : : $ $ % : % # : % 4 % 2 % # % % : 2 2 % $ 4 : # $ $ $ $   ",
"              % $ : : $ $ : $ $ : : 2 : : % # $ : 2 2 : % 2 % $ $ % : 2 X   ",
"        X X   # % $ 2 $ : : $ $ : 2 2 : : % $ % 2 2 2 % 2 2 : 2 : 2 2 @     ",
"        X $ # @ $ % % $ $ : $ % : 2 2 2 $ $ $ : 2 2 : : 2 1 : : 2 2 $ X     ",
"        X % : : $ $ $ $ $ % : $ 2 $ 2 4 : : % : : 2 2 : 2 2 : : : : : $     ",
"          $ : : $ $ $ $ % # : : $ 2 $ : 2 : $ : 2 : : 2 2 : $ $ : 2 :       ",
"          X : % $ $ $ $ % $ $ : : : : # $ : $ 2 2 $ : : : : 2 2 2 $         ",
"            $ : : % $ $ $ $ : P R P v $ X $ : : : # @ # : 2 2 $             ",
"            X : : % $ $ $ % S W W W W J N , $ : % # N 9 $ : # $             ",
"              # : : % $ # x P b P R W a.a.r.G : 6 ~ B.~ @ : $ X @           ",
"            X X $ % $ # # x 7 @ $ 2 B r.a.a.a.w.t.a.~ q   $ 2 X @           ",
"              $ # 6 b v 2 6 L v : $ # : B r.u.a.u.B $ X   X : X             ",
"              X # v W W U v W W p.H $ $ @ % 0.u.w # , 8     $ @             ",
"                X 7 W R R R Y _ Z.7.* = k J t.u.q * 9.~     X X             ",
"                  # b W R R R R B.N.a a A.Z.u.a.6.i C.J                     ",
"                    $ b R R R R R / _ p.B.u.u.u.a.B.B.s                     ",
"                      X $ 3 F W R R R t.u.u.e./ u.u.u.=                     ",
"                    & t t u m F R W R / u.e._ _ t.a.0.                      ",
"                e ' }  . .[ X.n n F R R e.u._ _ u.u.=                       ",
"            & ` } } { { { { [ h n n n F W u.u.u.a.9.] y &                   ",
"          e }  .{ { { { { { { { Z n n n M E _ ^ Q :.1.1.:.y o               ",
"        e } } { { { { { { { { [ } K M F n n n n m -.:.:.:.1...&             ",
"      & } } { { { { { { { { { { [ 3.N.T I U U R n Z 1.:.:.:.1...o           ",
"      `  .{ { { } } { { { { { { *.>.V.C.! F Y R n Z 1.:.*.:.:.:.]           ",
"    e  .{ { { { } } { { { { {  .:.:.h.m.A.0.M Y n C :.:.*.*.:.:.1.t         ",
"    t  .{ { {  .*.} { { { { { *.:.:.g.c.z.V.N.P n C :.:.*.} :.:.1.|         ",
"  o ' { { {  .:.=.} } { { { { =.:.:.v.C.z.8.n.C.Q C :.:.=.{ ..:.:.=.o       ",
"  & { { { { *.:.=.} { { { { } :.:.:.<.m.A.c.4.f.z.s.:.:.=.} } :.:.:.e       ",
"  o { { { { =.:.:. .{ { { {  .:.:.:.g.z.z.A.V.f.8.<.=.:.:.} [ *.:.:.t       ",
"    ` [ [  .=.:.*.} { { { { ..:.:.:.2.V.f.s.V.V.c.%.[ =.:. .[  .:.:.y       ",
"    g %.<.v.v.3.<.} { { { { ..:.:.:.,.V.C.c.4.f.z.%.[ *.:. .[  .:.:.y       ",
"  O $.j.f.V.A.A.V.} [ { { { ..:.:.:.,.d.f.8.4.#.&.+.[ *.:...;.,.3.b.$.      ",
"  * #.z.j.f.8.d.c.+.[ { { [  .:.:.=.v.A.V.c.c.z.z.s. .*.:.+.f.n.V.m.x.*     ",
"  ; @.8.f.V.V.C.m.u t ` | ;.2.2.<.<.z.c.x.z.k.z.z.c.z.&.r o.8.z.z.c.m.i     ",
"  - &.z.8.8.8.j.$.+   * i l O.O.7.l.l.c.c.c.c.c.c.5.O.i O o.8.z.z.f.z.a     ",
"  X $.c.n.V.n.h.l     ; ; ; ; ; i i i i a j a i i ; ; ; + u &.f.z.c.V.g     ",
"  9 ! 0.r.q.M.7.*   X ; ; i i i i ; ; ; ; ; ; ; ; 0 i d a = 9.c.m.m.M.A     ",
"X P W Y Y e.u.q     + = i d d k k f d a a a a d d j k z k G R ) y.i.u.r.+   ",
"< W R R R t.a.N     + = i d d d j z z z z z z z z z z k z Q R Y e.a.u.u.s   ",
"> R W R _ u.u.G     * = ; d d f k k k k z k k k z z k k k Q W R / u.u.a.V   ",
"  w W W _ _ / q     = = ; a d j z k k z z k f f k k k k z A P W R e.e.u.G   ",
"    w L P ^ B       * = ; i d f z z z z z f a a d j k k z j = S W R W ( =   ",
"        X +         * = ; a d d k z k k z j 0 0 i d k z k z * X 9 c w +     ",
"                    * = ; a a d j k z k j z a ; 0 a k k k z *               ",
"                    + = = a a d a j k k a k j 0 0 i k z k k +               ",
"                    + = = i a d a p f j d d k i ; i j k k f                 ",
"                      = = i a a d 0 i f f p k f 0 i a j j a                 ",
"                      * = 0 a i d i ; d f i d k i 0 a f j ;                 ",
"                      + = ; a 0 a i ; i f p a k a 0 p d f +                 ",
"                        ; = p i 0 p ; 0 a p p k f 0 i i ;                   ",
"                        ; = i a 0 a 0 ; i i p j k i i i                     ",
"                        * ; ; a a a i ; i 0 i k k a p *                     ",
"                        X = = i a a p i a 0 ; j j 0 +                       ",
"                          = = ; a a 0 i a ; = i i *                         ",
"                        * = = ; 0 0 ; ; 0 = = ; ; *                         ",
"                      X = * = = ; 0 ; ; = * ; 0 i d a X                     ",
"                      + * * * = = ; ; = ; i a d j H H j *                   ",
"                      * * = * = = * = i d d d d d k D H k *                 ",
"                    X * * = * * = ; a d d d d d a a d d d 0                 ",
"                      + * * + + * ; ; ; ; i ; ; ; ; 0 0 0 i +               ",
"                        * * + + * * * * * * * * * * = * * * +               ",
"                        . + * + * = * * * * * * * * * * * +                 ",
"                            * * * = * * * + * * + + + X                     ",
"                              X X X + + + + +                               "
};
