/* XPM */
static char *b173f6a6b6b34c6f99b0730b756eb95ez02dCK4PCXPSpobC[] = {
/* columns rows colors chars-per-pixel */
"35 73 148 2 ",
"   c None",
".  c #181408",
"X  c #080818",
"o  c #181D18",
"O  c #281808",
"+  c #381818",
"@  c #28280A",
"#  c #382808",
"$  c #383808",
"%  c #080E2D",
"&  c #282829",
"*  c #383828",
"=  c #333C33",
"-  c #493808",
";  c #482819",
":  c #483818",
">  c #4C382A",
",  c #484808",
"<  c #5A4808",
"1  c #784708",
"2  c #685808",
"3  c #785808",
"4  c #684818",
"5  c #7C5818",
"6  c #484828",
"7  c #584828",
"8  c #484838",
"9  c #585838",
"0  c #6F532D",
"q  c #7F6837",
"w  c #0E124E",
"e  c #16186E",
"r  c #2E2F70",
"t  c #4A3A66",
"y  c #484848",
"u  c #585848",
"i  c #515852",
"p  c #69584D",
"a  c #586858",
"s  c #686858",
"d  c #50516F",
"f  c #71486E",
"g  c #576A6E",
"h  c #686868",
"j  c #757868",
"k  c #686778",
"l  c gray47",
"z  c #885B28",
"x  c #8E573B",
"c  c #9D6830",
"v  c #B2773D",
"b  c #DB701E",
"n  c #C36925",
"m  c #D97938",
"M  c #806749",
"N  c #927946",
"B  c #A86557",
"V  c #8F5876",
"C  c #8B7868",
"Z  c #C7774A",
"A  c #788878",
"S  c #E88837",
"D  c #9F885F",
"F  c #898978",
"G  c #B39B6F",
"H  c #B3807F",
"J  c #C5894C",
"K  c #D88A4C",
"L  c #F88748",
"P  c #E89848",
"I  c #F89848",
"U  c #E88759",
"Y  c #F59858",
"T  c #E8A858",
"R  c #F8A85D",
"E  c #D2936E",
"W  c #E9986A",
"Q  c #CAAC7D",
"!  c #E6A868",
"~  c #F8B868",
"^  c #F8B87B",
"/  c #181888",
"(  c #181898",
")  c #2E2F92",
"_  c #1818A9",
"`  c #1828A9",
"'  c #2828A8",
"]  c #3939A8",
"[  c #282BB8",
"{  c #3839B8",
"}  c #484290",
"|  c #585694",
" . c #707090",
".. c #5150B1",
"X. c #6868A8",
"o. c #7968A7",
"O. c #7978A7",
"+. c #6768B8",
"@. c #7878B8",
"#. c #3738C9",
"$. c #3848CE",
"%. c #5848C8",
"&. c #5858C8",
"*. c #4848D7",
"=. c #4858D8",
"-. c #5858D8",
";. c #7171CF",
":. c #4549E8",
">. c #6268E8",
",. c #7379E8",
"<. c #8878B6",
"1. c #888E90",
"2. c #B9A492",
"3. c #9D94AB",
"4. c #8988B7",
"5. c #B1A7B0",
"6. c #DFB48C",
"7. c #E8C888",
"8. c #F8C888",
"9. c #E8C898",
"0. c #F8C898",
"q. c #E8C4A8",
"w. c #E8D8A8",
"e. c #F8D8A4",
"r. c #F8D8BB",
"t. c #F8E9B0",
"y. c #8888C8",
"u. c #9888C8",
"i. c #9898C7",
"p. c #8588D8",
"a. c #989AD8",
"s. c #A8A8C8",
"d. c #BAA8C8",
"f. c #BAB8C5",
"g. c #A8A8D8",
"h. c #B8A8D8",
"j. c #B8B8D8",
"k. c #9193E9",
"l. c #A7AAED",
"z. c #B8B9E9",
"x. c #C8B8E3",
"c. c #CFCFD3",
"v. c #E9D3D3",
"b. c #F7ECCF",
"n. c #D0CFF0",
"m. c #E8D8EE",
"M. c #F3F2E8",
"N. c #E8EEF8",
/* pixels */
"                  O                 . . O # #                         ",
"                . $             . @ # $ - #           . #             ",
"                # $ .       O # # $ - - #         . # $ #             ",
"        . .   . # < O     @ $ $ # $ - -     . . # $ # #         O     ",
"          #   . $ 2 @   @ # # # # - - - # # # # @ # - .   . O $ #     ",
"    .     - $ @ $ < - @ $ @ # # - < < - # # # # - 2 - O @ # $ < .     ",
"    . #   # - # # $ < - # @ # # - < < $ # # $ - 3 < - $ @ # < O     . ",
"      - - - < $ # - < < @ # # - # < - # @ $ < - < - $ # # 2 $   . @ $ ",
"      # - - - - # - - < @ # # < # 2 - @ # < - - < < # $ 2 < @ # # # O ",
"      O - - - # # $ - $ @ - $ 2 $ < $ @ $ $ - < < $ # 2 - @ # # # #   ",
"        $ # - - # # - # # - - < - - $ @ # - < < - $ < $ # # $ - < .   ",
"  . .   @ $ # < # - - # # - < < - - $ # $ < < < $ < < - < - < < O     ",
"  . # @ O # $ $ # # - # $ - < < < # # # - < < - - < , - - < < # .     ",
"  . $ - - # # # # # $ - # < # < 2 - - $ - - < < - < < - - - - - #     ",
"    # - - # # # # $ @ - - # < # - < - # - < - - < < - # # - < -       ",
"    . - $ # # # # $ # # - - - - @ # - # < < # - - - - < < < #         ",
"      # - - $ # # # # - K Y K c # . # - - - @ O @ - < < #             ",
"      . - - $ # # # $ Z R R R R G M : # - $ @ M 7 # - @ #             ",
"        @ - - $ # @ z K v K Y R t.t.9.D - 4 Q b.Q O - # . O           ",
"      . . # $ # @ @ z 5 O # < N 9.t.t.t.7.0.t.Q 9   # < . O           ",
"        # @ 4 v c < 4 J c - # @ - N 9.e.t.e.N # .   . - .             ",
"        . @ c R R P c R R r.F # # O $ 6.e.0 @ : 6     # O             ",
"          . 5 R Y Y Y I ^ M.3.& * j G 0.e.9 & 5.Q     . .             ",
"            @ v R Y Y Y Y b.v.i i N.M.e.t.2.y m.G                     ",
"              # v Y Y Y Y Y ~ ^ r.b.e.e.e.t.b.b.p                     ",
"                . # 1 S R Y Y Y 0.e.e.8.~ e.e.e.*                     ",
"              % e e t n S Y R Y ~ e.8.^ ^ 0.t.6.                      ",
"            e ' [ [ _ } b b S Y Y 8.e.^ ^ e.e.*                       ",
"        X / [ ` ` ` ` _ f b b b S R e.e.e.t.5.) r X                   ",
"      % ( [ ` ` ` ` ` ` ` V b b b m T ^ ! E *.:.:.] X                 ",
"    X ( ' ` ` ` ` ` ` ` _ ' H m S b b b b n %.*.*.:.{ X               ",
"    / [ ` ` ` ' ` ` ` ` ` _ ,.v.U L P P Y b V :.*.*.:.]               ",
"  w ' ` ` ` ` ' ' ` ` ` ` #.=.n.m.W S I Y b V :.*.*.*.*.w             ",
"  / ' ` ` ` ` [ { ` ` ` [ *.*.a.x.N.6.m I b B *.*.*.*.*.{ X           ",
"% ' ` ` ` ` _ #.#.` ` ` #.*.*.p.j.g.n.v.K b B *.*.*.*.*.*.w           ",
"w ' ` ` ` ' { *.*.' ` ` $.*.*.k.m.g.4.z.m.E B *.*.$.*.*.*.e           ",
"e [ ` ` ` #.*.*.$.' ` ' *.*.*.;.x.N.j.<.i.g.y.*.*.$.$.*.:.r           ",
"e [ ` ` ' *.*.*.#.` ` [ *.*.*.p.g.g.N.n.i.4.;.$.*.$.#.*.:.)           ",
"w [ ` _ [ *.*.*.{ _ ` { *.*.*.>.n.i.y.n.n.j.+._ $.*.{ *.:.)           ",
"% ( ` ' *.-.-.-.[ ` ` { *.*.*.-.n.m.j.<.i.g.+._ #.*.{ *.*.r           ",
"  | @.i.n.m.N.z.' _ ` { *.*.*.-.u.i.4.<.o.@..._ #.*.#.*.-.r           ",
"o O.g.4.s.h.s.z.&._ _ [ *.*.$.k.N.n.j.j.g.g.y.[ #.-.l.l.z.d           ",
"o X.i.g.j.h.j.n.+.' &.>.>.;.;.g.j.h.g.s.g.g.j.g.p.y.h.h.x.1.          ",
"o X.@.<.i.j.z.i.d y k  . .3.f.f.j.j.j.j.j.j.1.k k h.z.j.x.1.          ",
".  .a.g.g.i.i.<.a = = = = y y y y i h i y y = = = O.u.4.g. .          ",
"  y s.j.c.n.x.1.= = y y y y = = = = = = = = 8 y i A n.n.n.g           ",
"  v R ^ ^ w.q.* & = y j j j s a i i i i a s h j j l d.j.c.s           ",
"; Y Y I Y e.e.8 & = y j l l l l l l l l l l l l j l 9.e.t.G           ",
"0 R Y Y R e.t.C & * y j l j j j j j j j j j j j j j 9.e.t.6..         ",
"> Y R Y ^ 8.^ C & * 8 h l j j j j j j j j j j j j j 6.t.t.9.o         ",
"  7 P R R ^ W * & * * s l j j j j j j j l l l j j j E ~ e.Q           ",
"    + z x q :   * * * y h j j j j j j s a i a l j j J Y E 8           ",
"                * = * = u s s j l j l h 8 = i j l l u ; .             ",
"                * = * = y a i j l j l j 8 = i j l A =                 ",
"                * = * = y i i h l j j j y = i j l A =                 ",
"                & = * = y i i h l h a l i = j l j l =                 ",
"                o = * = y i i s l s y j h y l l j l &                 ",
"                . = * = y y i a l s y j l y h l l j o                 ",
"                . = * = 8 8 y a j s y h l u 8 s l j o                 ",
"                . = * = y = 8 i h a 8 s l a 8 u h i                   ",
"                . = * 8 y = = y s y 8 s l a y u u *                   ",
"                . * = 8 y = = y i = 8 h j i 8 8 8 o                   ",
"                  * = 8 y = * 8 8 * 8 j h 8 = = = .                   ",
"                  * * * = * * = = * y i i = * = *                     ",
"                  & * * * * * * = = = * & = * 8 o                     ",
"                  . * * * * * * * = * & & 8 y =                       ",
"                    & = y y 8 = * * * y j i a y .                     ",
"                  . & 8 a a a a i 8 i A F j i s y                     ",
"                  o * = i a a a a a a h F F i i s =                   ",
"                  o = & = i a a a a a a j s y 8 i =                   ",
"                  & = & & * 8 y y y 8 y i y y = & &                   ",
"                  & = * * & & & & & & 8 y y y = = o                   ",
"                    o & & & & & & & & 8 y 8 * & &                     "
};
