/* XPM */
static char *_9b87c0c686c470b8107f1f65d62a5dceBJercLw8H5EpEvk[] = {
/* columns rows colors chars-per-pixel */
"34 73 143 2 ",
"   c None",
".  c gray3",
"X  c #081808",
"o  c #181408",
"O  c #080818",
"+  c #181D18",
"@  c #281808",
"#  c #28280A",
"$  c #382808",
"%  c #383808",
"&  c #080E2D",
"*  c #181830",
"=  c #282829",
"-  c #383828",
";  c #333C33",
":  c #493808",
">  c #483818",
",  c #583818",
"<  c #484808",
"1  c #5A4808",
"2  c #484818",
"3  c #685808",
"4  c #684818",
"5  c #784818",
"6  c #7C5818",
"7  c #484838",
"8  c #585838",
"9  c #6F532D",
"0  c #0E124E",
"q  c #31334F",
"w  c #16186E",
"e  c #2E2F70",
"r  c #4A3A66",
"t  c #484848",
"y  c #585848",
"u  c #515852",
"i  c #586858",
"p  c #686840",
"a  c #686858",
"s  c #50516F",
"d  c #686868",
"f  c #757868",
"g  c #686778",
"h  c gray47",
"j  c #885B28",
"k  c #8E573B",
"l  c #9D6830",
"z  c #B2773D",
"x  c #DB701E",
"c  c #C36925",
"v  c #D97938",
"b  c #927946",
"n  c #8E7658",
"m  c #A86557",
"M  c #8F5876",
"N  c #8B7868",
"B  c #C7774A",
"V  c #788878",
"C  c #E88837",
"Z  c #9F885F",
"A  c #898978",
"S  c #B39B6F",
"D  c #C5894C",
"F  c #D88A4C",
"G  c #E88848",
"H  c #E89848",
"J  c #F89848",
"K  c #F59858",
"L  c #F8A85D",
"P  c #D2936E",
"I  c #E9986A",
"U  c #E6A868",
"Y  c #F8B868",
"T  c #E8A878",
"R  c #F8A67A",
"E  c #F8B87B",
"W  c #181888",
"Q  c #181898",
"!  c #2E2F92",
"~  c #1818A9",
"^  c #1828A9",
"/  c #2828A8",
"(  c #3939A8",
")  c #282BB8",
"_  c #3839B8",
"`  c #484290",
"'  c #585694",
"]  c #6A58AB",
"[  c #6868A8",
"{  c #7978A7",
"}  c #6768B8",
"|  c #7878B8",
" . c #3738C9",
".. c #3848CE",
"X. c #5858C8",
"o. c #4848D7",
"O. c #5858D8",
"+. c #5868D2",
"@. c #7171CF",
"#. c #4549E8",
"$. c #6268E8",
"%. c #7379E8",
"&. c #9F7D9A",
"*. c #8878B6",
"=. c #888E90",
"-. c #9E9893",
";. c #B9A492",
":. c #9D94AB",
">. c #8988B7",
",. c #B1A7B0",
"<. c #DFB48C",
"1. c #CAAEB1",
"2. c #D7BDB2",
"3. c #F8C888",
"4. c #E8C898",
"5. c #F8C898",
"6. c #E8C4A8",
"7. c #F8D8A4",
"8. c #F8D8BB",
"9. c #F8E9B0",
"0. c #8888C8",
"q. c #9888C8",
"w. c #9898C7",
"e. c #8588D8",
"r. c #9888D8",
"t. c #989AD8",
"y. c #A898CA",
"u. c #A8A8C8",
"i. c #BAB8C5",
"p. c #A8A8D8",
"a. c #B8A8D8",
"s. c #B8B8D8",
"d. c #9193E9",
"f. c #A7AAED",
"g. c #B8B9E9",
"h. c #C8B8E3",
"j. c #CFCFD3",
"k. c #E9D3D3",
"l. c #F7ECCF",
"z. c #D0CFF0",
"x. c #E8D8EE",
"c. c #F3F2E8",
"v. c #E8EEF8",
/* pixels */
"                o                       o @                         ",
"                $               o # $ $ % @           o o           ",
"              # % o         @ $ % % : : o         o $ %             ",
"              $ : o     o $ % $ % : 1 o       o $ % % o             ",
"      o #   o % 3 @   @ $ % $ $ % : : o @ $ $ $ $ $ #       @ $     ",
"        : @ @ % 3 $ o $ $ $ $ % 1 1 : $ $ $ $ $ : :   o # $ 1 @     ",
"  @ o   : : $ % : 1 $ $ # $ $ : 1 1 : $ $ $ : 3 3 : $ $ # : :       ",
"    : @ $ 1 $ $ : 1 : $ $ $ % % 1 1 % $ $ : 1 3 : : $ # 1 1     o $ ",
"    : : : : : $ : 1 1 # $ $ 1 $ 1 : $ # < 1 : 1 : % $ 1 3 @ o # $ $ ",
"    $ : : : % $ % : : # % $ 1 % 3 : # : 1 $ 1 1 1 $ 1 3 % $ $ $ $ o ",
"    o : % : % $ % : $ # : : 3 : 1 % # $ $ 1 1 1 $ : 1 $ # $ $ : #   ",
"      $ % % : $ % % $ $ : : 1 : : % # % : 1 1 % 1 1 % : : : 1 :     ",
"@ $ o @ % % : $ : : $ $ : 1 1 : % $ $ : 1 1 : : 1 1 1 : < 1 %       ",
"o $ % $ $ % $ $ $ : $ $ : : 1 1 % % % 1 : 1 : : : 1 : 1 1 : $ # o   ",
"  % : : $ $ $ $ $ $ : $ : : % 1 1 : % : 1 1 : 1 1 1 % % : 1 : @     ",
"  # : : $ $ $ $ : $ : : @ : % $ : : $ 1 1 % : 1 1 : : : : : @       ",
"  o : : : $ $ $ $ % $ j l 6 1 $ @ % : 1 1 $ $ $ : 1 1 1 $           ",
"    # : : % $ $ $ # 6 L L L H 4 $ @ % : : @ $ # : 1 : #             ",
"      $ : % % $ # 4 K K L L L 5.4.Z 2 $ $ p 4.Z # : @ @ o           ",
"      o % : $ $ # l l , j z U 9.9.9.4.b S 9.9.S o : : . @           ",
"    o @ # : 1 : $ 6 l % @ # : b 4.9.9.9.9.4.9 #   @ 1 o o           ",
"      # # j K K l 6 K H z p $ $ : b 4.7.S 2 @ @     % @             ",
"        @ l L K L F K E c.-.= > % > <.4.> = n n     @ @             ",
"          1 K L K K K R c.i.= ; i.l.7.9.N = j.;.                    ",
"            6 K L L K K E 8.;.-.c.l.7.7.6.-.c.n                     ",
"              4 l z K L J J Y 9.7.7.3.3.7.9.9.8                     ",
"              O O , x J L K K 3.7.7.3.Y 7.7.7.+                     ",
"          O w / ~ / k x G K K L 7.5.E E 5.9.n                       ",
"        & Q ) ^ / ~ / c x x C K E 9.3.3.9.6.* O                     ",
"      & / / ^ ^ ^ ^ ~ ( c x x x H 5.7.7.5.| ....! O                 ",
"    & ^ / ^ ^ ^ ^ ^ ^ ~ ` v x x x x v x B o.o.o.#...*               ",
"    W ) ^ ^ ^ ^ / ^ ^ ^ ~ r.T C C v v C x ] #.o.o.#...O             ",
"    Q ^ / / ) ) / ^ ^ ^ / O.z.6.C G K K x M #.o.o.o.#.w             ",
"    ^ ^ / ) o.o.../ ^ / ..o.g.v.k.F C K x M #.o...o.#.(             ",
"    ^ / ^ / o.o.o. .~ _ o.o.e.p.z.x.T C x m o.o.../ o...            ",
"    ^ / ^ ^  .o.o.../  .o.o.d.z.w.p.v.<.x m o.o.o./ o.o.O           ",
"    Q / / ^ ) o.o.o./ ..o.o.e.x.z.q.>.z.1.&.o.o.o./ o.o.O           ",
"    w ) ^ ^ ^ o.o.o._ o.o.o.e.p.z.v.p.| 0.e.o.o.o.) o...O           ",
"    0 ) ~ ~ X.z.x.v.@. .o.o.%.g.>.g.v.h.y.@.) o.o.) o._             ",
"    O ~ _ | h.v.z.a.p.o.o.o.$.x.z.q.y.g.s.} ~  .o._ +.`             ",
"      ! w.u.p.w.w.s.v.d.o.o.O.w.s.a.*.{ >.} ~  .o.@.u.s             ",
"      e t.w.>.s.s.p.h.g.o...%.h.p.>.q.>.>.} ~ ) o.| >.=             ",
"      = >.p.u.q.y.h.s.f.o.o.t.z.h.h.s.s.p.p.@.O.} >.{               ",
"        ' 0.>.w.s.w.>.w.t.p.s.s.s.p.p.s.g.p.w.>.>.>.r               ",
"        + [ t.0.>.,.2.7.1.=.=.=.=.:.:.=.h u t t w.w.q               ",
"          = g :.6.Y E 7.7.Z ; ; ; ; ; ; ; ; ; y I 2.7               ",
"            + K L K K 5.5.4.u t t t t t t u u d S 9.k               ",
"            = H K K K 3.E L A f f f f f f h h h N E j               ",
"            = D L K K L E U h h h h h h h f f f h P 5               ",
"            = 8 F K K K S V f f f f f f f f f f h N @               ",
"          o - - y a N N f f h f f f h f f f f f f h -               ",
"          + - ; u u i d f h f f h f a h f f f f f h -               ",
"          = - ; u u u d f f a f h f u f f f f f f V 7               ",
"          = - 7 u t y d h f a f h f y f h f f f f h u               ",
"          - - 7 t 7 t d f f i f h f t u h h f f f h d o             ",
"        X - - t t 7 y d d d i f h d 7 t f h f f f f h 7             ",
"        + - - t 7 ; u a i i u f h d 7 7 a f f f f f h u             ",
"        = - ; t ; ; u u u u u f h d 7 7 t a d f f f h a             ",
"        - - ; t ; ; t t u t u f h a 7 7 ; y a a i f h f +           ",
"      + - - ; t - ; t t 7 7 u f h i 7 7 ; 7 u u t d h f +           ",
"      = - - ; 7 - 7 t 7 ; 7 u f h u 7 7 - 7 u u 7 i h f =           ",
"    o - - - - 7 ; t t ; ; 7 a h f t t 7 - ; t 7 ; u h d +           ",
"    + - - - - ; 7 7 7 - ; u f h f t t 7 - ; t 7 - t f i o           ",
"      - - - - - - ; ; - u a i h u 7 t ; = ; t ; - t u 7             ",
"      = - - - - = - 7 ; u t t u = ; t ; - 7 ; ; 7 u t +             ",
"      o - - - ; 7 - - ; ; ; t =   = ; 7 7 - = ; t 7 - =             ",
"      = ; = ; u i u 7 - 7 u i = + - = ; ; ; ; - = - u f =           ",
"    o ; - = ; i i i i a V V V f ; = = ; u i i u 7 i A A i o         ",
"    + ; = = = t i i i i V V V A i = = = t i i i i i f A A 7         ",
"    + ; = = = = t i i i V V V V f ; = = - t u i i i i f V t X       ",
"      = ; = = = = ; t t u u u u t 7 ; = = = ; 7 7 t t u u t o       ",
"        = ; - - - = = ; t t t t t 7 ; - - - = = = = 7 t t t         ",
"          + = = = = = ; t t t t 7 ; = = = = = = = = 7 t 7 =         "
};
