/* XPM */
static char *af0fe41a77f34869f8e1f52eebcb3558j3lhUUL7NjwDsQ1F[] = {
/* columns rows colors chars-per-pixel */
"35 72 143 2 ",
"   c None",
".  c #081808",
"X  c #181408",
"o  c #080818",
"O  c #181D18",
"+  c #281808",
"@  c #28280A",
"#  c #382808",
"$  c #383808",
"%  c #080E2D",
"&  c #181830",
"*  c #282829",
"=  c #383828",
"-  c #333C33",
";  c #493808",
":  c #483818",
">  c #583818",
",  c #4C382A",
"<  c #484808",
"1  c #5A4808",
"2  c #784708",
"3  c #685808",
"4  c #785808",
"5  c #684818",
"6  c #7C5818",
"7  c #484828",
"8  c #584828",
"9  c #484838",
"0  c #585838",
"q  c #6F532D",
"w  c #0E124E",
"e  c #31334F",
"r  c #16186E",
"t  c #2E2F70",
"y  c #4A3A66",
"u  c #484848",
"i  c #585848",
"p  c #515852",
"a  c #69584D",
"s  c #586858",
"d  c #686858",
"f  c #71486E",
"g  c #686868",
"h  c #757868",
"j  c #686778",
"k  c gray47",
"l  c #885B28",
"z  c #9D6830",
"x  c #B2773D",
"c  c #DB701E",
"v  c #C36925",
"b  c #D97938",
"n  c #806749",
"m  c #927946",
"M  c #8E7658",
"N  c #A86557",
"B  c #8F5876",
"V  c #8B7868",
"C  c #C7774A",
"Z  c #788878",
"A  c #E88837",
"S  c #9F885F",
"D  c #898978",
"F  c #B39B6F",
"G  c #B3807F",
"H  c #C5894C",
"J  c #D88A4C",
"K  c #F88748",
"L  c #E89848",
"P  c #F89848",
"I  c #E88759",
"U  c #F59858",
"Y  c #E8A858",
"T  c #F8A85D",
"R  c #D2936E",
"E  c #E9986A",
"W  c #CAAC7D",
"Q  c #E6A868",
"!  c #F8B868",
"~  c #F8B87B",
"^  c #181888",
"/  c #181898",
"(  c #2E2F92",
")  c #1818A9",
"_  c #1828A9",
"`  c #2828A8",
"'  c #3939A8",
"]  c #282BB8",
"[  c #3839B8",
"{  c #484290",
"}  c #5150B1",
"|  c #6868A8",
" . c #7968A7",
".. c #7978A7",
"X. c #6768B8",
"o. c #7878B8",
"O. c #3738C9",
"+. c #3848CE",
"@. c #5848C8",
"#. c #5858C8",
"$. c #4848D7",
"%. c #4858D8",
"&. c #5858D8",
"*. c #7171CF",
"=. c #4549E8",
"-. c #6268E8",
";. c #7379E8",
":. c #8878B6",
">. c #888E90",
",. c #B9A492",
"<. c #9D94AB",
"1. c #8988B7",
"2. c #B1A7B0",
"3. c #DFB48C",
"4. c #CAAEB1",
"5. c #E8C888",
"6. c #F8C888",
"7. c #E8C898",
"8. c #F8C898",
"9. c #E8C4A8",
"0. c #F8D8A4",
"q. c #F8D8BB",
"w. c #F8E9B0",
"e. c #8888C8",
"r. c #9888C8",
"t. c #9898C7",
"y. c #8588D8",
"u. c #989AD8",
"i. c #A898CA",
"p. c #A8A8C8",
"a. c #A8A8D8",
"s. c #B8A8D8",
"d. c #B8B8D8",
"f. c #9193E9",
"g. c #A7AAED",
"h. c #B8B9E9",
"j. c #C8B8E3",
"k. c #E9D3D3",
"l. c #F7ECCF",
"z. c #D0CFF0",
"x. c #E8D8EE",
"c. c #F3F2E8",
"v. c #E8EEF8",
/* pixels */
"                +                 X X + # #                           ",
"              X $             X @ # $ ; #           X #               ",
"              # $ X       + # # $ ; ; #         X # $ #               ",
"      X X   X # 1 +     @ $ $ # $ ; ;     X X # $ # #         +       ",
"        #   X $ 3 @   @ # # # # ; ; ; # # # # @ # ; X   X + $ #       ",
"  X     ; $ @ $ 1 ; @ $ @ # # ; 1 1 ; # # # # ; 3 ; + @ # $ 1 X       ",
"  X #   # ; # # $ 1 ; # @ # # ; 1 1 $ # # $ ; 4 1 ; $ @ # 1 +     X   ",
"    ; ; ; 1 $ # ; 1 1 @ # # ; # 1 ; # @ $ 1 ; 1 ; $ # # 3 $   X @ $   ",
"    # ; ; ; ; # ; ; 1 @ # # 1 # 3 ; @ # 1 ; ; 1 1 # $ 3 1 @ # # # +   ",
"    + ; ; ; # # $ ; $ @ ; $ 3 $ 1 $ @ $ $ ; 1 1 $ # 3 ; @ # # # #     ",
"      $ # ; ; # # ; # # ; ; 1 ; ; $ @ # ; 1 1 ; $ 1 $ # # $ ; 1 X     ",
"X X   @ $ # 1 # ; ; # # ; 1 1 ; ; $ # $ 1 1 1 $ 1 1 ; 1 ; 1 1 +       ",
"X # @ + # $ $ # # ; # $ ; 1 1 1 # # # ; 1 1 ; ; 1 < ; ; 1 1 # X       ",
"X $ ; ; # # # # # $ ; # 1 # 1 3 ; ; $ ; ; 1 1 ; 1 1 ; ; ; ; ; #       ",
"  # ; ; # # # # $ @ ; ; # 1 # ; 1 ; # ; 1 ; ; 1 1 ; # # ; 1 ;         ",
"  X ; $ # # # # $ # # ; ; ; ; @ # ; # 1 1 # ; ; ; ; 1 1 1 #           ",
"    # ; ; $ # # # # ; J U J z # X # ; ; ; @ + @ ; 1 1 #               ",
"    X ; ; $ # # # $ C T T T T F n : # ; $ @ n 8 # ; @ #               ",
"      @ ; ; $ # @ l J x J U T w.w.7.S ; 5 W l.W + ; # X +             ",
"    X X # $ # @ @ l 6 + # 1 m 7.w.w.w.5.8.w.W 0   # 1 X +             ",
"      # @ 5 x z 1 5 H z ; # @ ; m 7.0.w.0.m # X   X ; X               ",
"      X @ z T T L z T T q.D # # + $ 3.0.q @ : 7     # +               ",
"        X 6 T U U U P ~ c.<.* = h F 8.0.0 * 2.W     X X               ",
"          @ x T U U U U l.k.p p v.c.0.w.,.u x.F                       ",
"            # x U U U U U ! ~ q.l.0.0.0.w.l.l.a                       ",
"              X # 2 A T U U U 8.0.0.6.! 0.0.0.=                       ",
"            % r r y v A U T U ! 0.6.~ ~ 8.w.3.                        ",
"          ^ ] ] ] ) { c c A U U 6.0.~ ~ 0.0.,                         ",
"        ^ ] _ _ _ _ ) f c c c A T 0.0.0.w.2.( ( %                     ",
"      r ] _ _ _ _ _ _ _ B c c c b Y ~ Q R $.=.=.$.t                   ",
"    w ] _ ` ` ) [ ] _ ) ` G b A c c c c v @.$.$.$.=.(                 ",
"    ^ ` _ _ _ ` [ +._ _ ) ;.k.I K L L U c B =.$.$.$.$.&               ",
"    / ` _ ` _ [ $.$.] _ O.%.z.x.E A P U c B =.$.$.$.=.(               ",
"    r ] _ _ _ ] $.$.[ ` $.$.u.j.v.3.b P c N $.$.+.[ $.[               ",
"    w ] _ _ _ ` $.$.O.O.$.$.y.d.a.z.k.J c N $.$.+.` $.(               ",
"    % ` ` ` _ ] $.$.O.O.$.$.f.x.a.1.h.x.R N $.$.$.` =.t               ",
"    o / ` ` _ ] $.$.#.$.$.$.*.j.v.d.:.t.a.e.$.$.$.` $.w               ",
"      r ] ` ) [ g.z.v.f.+.$.y.a.a.v.z.t.1.*.+.$.$.] +.                ",
"      % _ ) ' u.v.x.a.a.-.+.-.z.t.e.z.z.d.X.) +.$.] (                 ",
"        ^ } t.d.s.t.a.x.h.$.&.z.x.d.:.t.a.X.) O.$.#.o                 ",
"        w e.i.1.e.z.a.p.z.;.&.r.t.1.:. .o.} ) O.$.o.                  ",
"          | t.t.i.r.d.z.p.y.f.v.z.d.d.a.a.e.] O.&...                  ",
"          e e.a.1.p.d.1.1.4.p.d.s.a.p.a.a.d.a.y.:...                  ",
"            y | t.e.1.4.0.0.7.2.d.d.d.d.d.>.j j t.y                   ",
"              j 1.1.9.T T 0.0.7.s s p u u - - u G                     ",
"            X - - R T U P 6.6.! V - - - - 9 u s Y >                   ",
"            * = - x T U U T ~ ! S p p s s g h h F z                   ",
"            * = - a U T U P U F k k k k k k k h D m                   ",
"            * = 9 p M J R R S h h h k h h h h h k h                   ",
"          X = = u s s h h h h h h h h h h h h h k k *                 ",
"          O = - p s g k k h h h k h d g k h h h h Z 9                 ",
"          * = 9 s p d h h h h h k h p i h k h h h Z i                 ",
"          * - u p p s h h h g h k h p u g k h h h k h X               ",
"          = 9 i p u s h h g d h k g u u s k k h h h k 9               ",
"        O - 9 u u u s h g d d h k d 9 9 p h h h h h k h O             ",
"        = - u 9 - 9 s d s p d h k s - 9 u d h h h h h k u             ",
"      * - u 9 - = - 9 u p i d k h u = 9 u p d g h h h k g             ",
"    X = 9 u 9 - = - - - 9 - 9 h s = = 9 9 9 s d g h h h k *           ",
"    * - 9 9 9 - - - - - = = = p - * = - 9 - p s d g h g h u           ",
"  X = - - - - - - - - - = = - = X * = - u - u p s d d d d p           ",
"  O - 9 - - - - - 9 - - - - - *   * = - u - 9 p s s s s s s O         ",
"    = - 9 - - - - - - - 9 9 9 X   O - 9 u 9 - u p p u p d p O         ",
"  O = = = = - - = - 9 9 9 - O       * 9 u 9 - - u 9 - 9 p u           ",
"X - - p - * = = = - - - - *         O - 9 9 - - - = - 9 u s 9 .       ",
"O * - d s 9 - = * * * * =             * = - 9 - - u p s g D >.g *     ",
"* * - s s s s p u p 9 u O             O - = - u s s s s s h Z D h *   ",
"* * - p s s s s d D D D p               O - p s s s s s p p s s s 9   ",
"* - * - p s s s s Z D D k               X - - - - u - - - - 9 9 9 u O ",
"  * = * - u s s d D D >.h               O - * * * * * * * * = * * * O ",
"  O - * * * - u p h D Z p               O - * * * * * * * * * * * O   ",
"    O - - - * * - 9 u u u O               * * * * * * * O O O X       ",
"      X O O * * - 9 9 9 -                   O O O O O                 "
};
