/* XPM */
static char *_b8ed9d95c0e4786e8bcd468ae5430bbbhYaJcQwZqkz8tzs[] = {
/* columns rows colors chars-per-pixel */
"29 17 19 1 ",
"  c None",
". c #1B1B1B",
"X c #221C1A",
"o c #272727",
"O c #422433",
"+ c #5B3138",
"@ c #71413B",
"# c #2A2F4E",
"$ c #8E251D",
"% c #AE2334",
"& c #9E4539",
"* c #FB6B1D",
"= c #CD683D",
"- c #BB7547",
"; c #E6904E",
": c #DBA463",
"> c #92A1B9",
", c #B4B4B4",
"< c white",
/* pixels */
"   .........                 ",
"  .OO++OO+++.                ",
" .OO++++OO+++.               ",
" .OO+++++O+++.               ",
" .OO+++++++++.               ",
" .OO+++++++++.               ",
" .XXOOXXOOXXO.               ",
"  .&&=,.&&.,.                ",
"  .==;<o==o<.                ",
"  .==;;;$$;;.                ",
"  .==;;;;;;;.   ##           ",
" ......@@@@....#*############",
".<<@--::::::--<.%#>>>>>>>>><#",
".<<@--::--::--<.%#<<<<<<<<<# ",
" ...@--::::-@..#*##########  ",
"    .+.....+.   ##           ",
"   .-.    .-.                "
};
