/* XPM */
static char *_1712579680[] = {
/* columns rows colors chars-per-pixel */
"14 19 15 1 ",
"  c None",
". c #1B1B1B",
"X c #221C1A",
"o c #272727",
"O c #422433",
"+ c #5B3138",
"@ c #71413B",
"# c #8E251D",
"$ c #9E4539",
"% c #CD683D",
"& c #BB7547",
"* c #E6904E",
"= c #DBA463",
"- c #B4B4B4",
"; c white",
/* pixels */
"  .........   ",
" .OO++OO+++.  ",
".OO++++OO+++. ",
".OO+++++O+++. ",
".OO+++++++++. ",
".OO+++++++++. ",
".XXOOXXOOXXO. ",
" .$$%-.$$.-.  ",
" .%%*;o%%o;.  ",
" .%%***##**.  ",
" .%%*******.  ",
"  ....@@@@.o  ",
" .@&&======&. ",
".;@&&==&&==&;.",
".;;..&====.;;.",
" .. .+++++... ",
"    .+&.+&.   ",
"     .+&..    ",
"      ...     "
};
