/* XPM */
static char *_51712579682[] = {
/* columns rows colors chars-per-pixel */
"28 18 17 1 ",
"  c None",
". c #1B1B1B",
"X c #191C1E",
"o c #221C1A",
"O c #272727",
"+ c #422433",
"@ c #5B3138",
"# c #71413B",
"$ c #C42430",
"% c #9E4539",
"& c #CD683D",
"* c #BB7547",
"= c #E6904E",
"- c #DBA463",
"; c #B4B4B4",
": c #FAFCFF",
"> c white",
/* pixels */
"       .........            ",
"      .++++@@++@.           ",
"     .++++@@@@++@.:::       ",
"     .++++@@@@@+@:::::::    ",
"     .++++@@@@@@@.::::::::  ",
"   : .++++@@@@@@@.::::::::: ",
"  :::.ooooo+oo+++.::::::::: ",
" :::: .%%%%&;.%%.    :::::::",
"::::::.&&&&=>O&&.     ::::::",
"::::::X&&&&===$$.      :::::",
" :::  X&&&&=====.      :::::",
"       ....####.        ::: ",
"       .##*----.        ::: ",
"       .#>>#--*.       :::  ",
"        .>>.*--.       ::   ",
"         ..@@@.       ::    ",
"         .@@.@.             ",
"         .*..*.             "
};
