/* XPM */
static char *_51712579684[] = {
/* columns rows colors chars-per-pixel */
"25 26 20 1 ",
"  c None",
". c #1B1B1B",
"X c #191C1E",
"o c #221C1A",
"O c #272727",
"+ c #422433",
"@ c #5B3138",
"# c #71413B",
"$ c #2A2F4E",
"% c #AE2334",
"& c #C42430",
"* c #9E4539",
"= c #FB6B1D",
"- c #CD683D",
"; c #BB7547",
": c #E6904E",
"> c #DBA463",
", c #B4B4B4",
"< c #FEFFFF",
"1 c white",
/* pixels */
"          1111111        ",
"         1<<<<<<<<1      ",
"        111<<<<<<<<<1    ",
"        111<<<<<<<<<11   ",
"        <<111111111<<11  ",
"        <1111   1111<111 ",
"         111$    11<<<11 ",
"  .........1$     111<111",
" .++++@@++@.$      1 1111",
".++++@@@@++@.$     1 1111",
".++++@@@@@+@1$     1 1111",
".++++@@@@@@@.$     1 1 11",
".++++@@@@@@@.$       1 11",
".ooooo+oo+++1$$      1 11",
" .****-,.**.%=$      1 11",
" .----:1O--..$         11",
" X----:::&&.1.          1",
" X----:::::.1.          1",
"  ....####.;.           1",
" .##;>>>>>>.             ",
" .##;>>;;>>.             ",
" .#11;>>>>.              ",
"  .11.@@@@.              ",
"   ..@@..@.              ",
"    .;. .;.              ",
"    ..  ..               "
};
