/* XPM */
static char *_61712579684[] = {
/* columns rows colors chars-per-pixel */
"25 26 21 1 ",
"  c None",
". c #1B1B1B",
"X c #191C1E",
"o c #221C1A",
"O c #272727",
"+ c #422433",
"@ c #5B3138",
"# c #71413B",
"$ c #2A2F4E",
"% c #AE2334",
"& c #C42430",
"* c #9E4539",
"= c #FB6B1D",
"- c #CD683D",
"; c #BB7547",
": c #E6904E",
"> c #DBA463",
", c #92A1B9",
"< c #B4B4B4",
"1 c #FEFFFF",
"2 c white",
/* pixels */
"          2222222        ",
"         2221111112      ",
"        2222111111222    ",
"        22222111112222   ",
"        222$    2222122  ",
"        222$      221222 ",
"         2,2$     222222 ",
"  .........2$      2 2222",
" .++++@@++@.$      2 2222",
".++++@@@@++@.$     2 2 22",
".++++@@@@@+@2$       2 22",
".++++@@@@@@@.$          2",
".++++@@@@@@@.$          2",
".ooooo+oo+++2$$         2",
" .****-<.**.%=$         2",
" .----:2O--..$           ",
" X----:::&&.2.           ",
" X----:::::.2.           ",
"  ....####.;.            ",
" .##;>>>>>>.             ",
" .##;>>;;>>.             ",
" .#22;>>>>.              ",
"  .22.@@@@.              ",
"   ..@@..@.              ",
"    .;. .;.              ",
"    ..  ..               "
};
